<?xml version="1.0" encoding="UTF-8"?>
<svg width="272px" height="281px" viewBox="0 0 752 781" version="1.1" xmlns="http://www.w3.org/2000/svg" xmlns:xlink="http://www.w3.org/1999/xlink">
    <!-- Generator: Sketch 50 (54983) - http://www.bohemiancoding.com/sketch -->
    <title>bitcoin-spinner</title>
    <desc>Created with Sketch.</desc>
    <defs></defs>
    <g id="Page-1" stroke="none" stroke-width="1" fill="none" fill-rule="evenodd" stroke-linejoin="round">
        <path d="M135,265 C63.2029825,265 5,206.797017 5,135 C5,63.2029825 63.2029825,5 135,5 C206.797017,5 265,63.2029825 265,135 C265,206.797017 206.797017,265 135,265 Z M135,250 C198.512746,250 250,198.512746 250,135 C250,71.4872538 198.512746,20 135,20 C71.4872538,20 20,71.4872538 20,135 C20,198.512746 71.4872538,250 135,250 Z M120.059557,68.129299 L131.833955,68.129299 L131.833955,81.4724572 L139.274469,81.4724572 L139.274469,68.129299 L150.895399,68 L151.159127,81.4948358 C180.284791,92.3111934 186.558146,110.167798 169.979192,135.064649 C186.416432,160.189929 180.006163,178.077367 150.748386,188.726962 L150.748386,202 L139.274469,202 L139.274469,188.726962 L131.833955,188.726962 L131.833955,202 L120.059557,202 L120.059557,188.726962 L90,188.726962 L90,170.50774 L106.754939,170.50774 L106.754939,99.6329972 L90,99.6329972 L90,81.4724572 L120.059557,81.4724572 L120.059557,68.129299 Z M124,99 L124,127 L144.093151,127 C154.03105,125.850551 159,121.183884 159,113 C159,104.816116 154.03105,100.149449 144.093151,99 L124,99 Z M124,143 L124,171 L143.818474,171 C153.939491,169.752687 159,165.086021 159,157 C159,148.913979 153.939491,144.247313 143.818474,143 L124,143 Z" id="Combined-Shape" stroke="#020202" stroke-width="4" fill="#FCAF30"></path>
    </g>
</svg>