<?xml version="1.0" encoding="UTF-8"?>
<svg height="24px" preserveAspectRatio="xMidYMid meet" viewBox="0 0 230 246" version="1.1" xmlns="http://www.w3.org/2000/svg" xmlns:xlink="http://www.w3.org/1999/xlink">
    <!-- Generator: Sketch 50 (54983) - http://www.bohemiancoding.com/sketch -->
    <title>Untitled</title>
    <desc>Created with Sketch.</desc>
    <defs></defs>
    <g id="Page-1" stroke="none" stroke-width="6" fill="none" fill-rule="evenodd">
        <path d="M175.25,3.4765625 L55.1367188,3.4765625 C26.4179118,3.4765625 3.13671875,26.7577555 3.13671875,55.4765625 L3.13671875,191 C3.13671875,219.718807 26.4179118,243 55.1367188,243 L175.25,243 C203.968807,243 227.25,219.718807 227.25,191 L227.25,55.4765625 C227.25,26.7577555 203.968807,3.4765625 175.25,3.4765625 Z" id="Path" stroke="#5D707F" stroke-width="6"></path>
        <path d="M61.0303956,73.9570312 C60.176229,46.9726562 77.3246665,33.4804687 112.475708,33.4804687 C147.62675,33.4804687 163.271281,46.9726562 159.409302,73.9570312 C162.417114,102.733073 146.772583,117.121094 112.475708,117.121094 L113.323364,167" id="Path-2" stroke="#5D707F" stroke-width="6" stroke-linecap="round"></path>
        <path d="" id="Path-3" stroke="#979797"></path>
        <path d="" id="Path-4" stroke="#979797"></path>
        <path d="M116.383756,193.018632 C108.794585,192.7295 105,195.805478 105,202.246565 C105,208.687652 108.794585,211.938797 116.383756,212" id="Path-5" stroke="#5D707F" stroke-width="6" stroke-linecap="round"></path>
        <path d="" id="Path-6" stroke="#979797"></path>
    </g>
</svg>